<svg width="111" height="33" viewBox="0 0 111 33" fill="none" xmlns="http://www.w3.org/2000/svg">
<path d="M12.5276 5.82905V16.5L15.2318 15.1103C20.0331 12.6287 23.0132 8.01287 23.0132 3H25V15.2096C25 19.1802 22.4614 22.8529 18.4327 24.5901L12.4724 27.171V16.5L9.76821 17.8897C4.96689 20.3713 1.98675 24.9871 1.98675 30H0V17.7904C0 13.8198 2.53863 10.1471 6.56733 8.40992L12.5276 5.82905Z" fill="#454C6A"/>
<path d="M41.072 7.608V11.32H35.952V18.36C35.952 21.176 38.256 23.448 41.072 23.448V27.192C36.176 27.192 32.24 23.224 32.24 18.36V0.0239983H35.952V7.608H41.072ZM52.9365 6.872C58.5685 6.872 63.1125 11.448 63.1125 17.048C63.1125 22.648 58.5685 27.224 52.9365 27.224C47.3365 27.224 42.7925 22.648 42.7925 17.048C42.7925 11.448 47.3365 6.872 52.9365 6.872ZM52.9365 23.48C56.4885 23.48 59.4005 20.6 59.4005 17.048C59.4005 13.496 56.4885 10.616 52.9365 10.616C49.3845 10.616 46.5045 13.496 46.5045 17.048C46.5045 20.6 49.3845 23.48 52.9365 23.48ZM81.4183 7.64H85.1303V17.432C85.1303 17.944 84.9063 18.424 84.5543 18.808L76.2343 26.52C75.8823 26.872 75.4343 27.032 74.9543 27.032C74.5063 27.032 74.0583 26.872 73.7063 26.52L65.3863 18.808C65.0023 18.424 64.8103 17.944 64.8103 17.432V7.64H68.5223V16.632L74.9543 22.616L81.4183 16.632V7.64ZM96.969 6.872C102.601 6.872 107.145 11.448 107.145 17.048C107.145 22.648 102.601 27.224 96.969 27.224C91.369 27.224 86.825 22.648 86.825 17.048C86.825 11.448 91.369 6.872 96.969 6.872ZM96.969 23.48C100.521 23.48 103.433 20.6 103.433 17.048C103.433 13.496 100.521 10.616 96.969 10.616C93.417 10.616 90.537 13.496 90.537 17.048C90.537 20.6 93.417 23.48 96.969 23.48Z" fill="#454C6A"/>
</svg>
